
<svg viewBox="376.55440414507774 178.2 1816.7098445595855 580.8" xmlns="http://www.w3.org/2000/svg" version="1.2" style="max-height: 500px" width="1816.7098445595855" height="580.8">
	<title>Jay Chauhan Logo</title>
	<defs>
		<clipPath id="cp1" clipPathUnits="userSpaceOnUse">
			<path d="m0 0h2550v3300h-2550z"/>
		</clipPath>
	</defs>
	<style>
		.s0 { fill: #FF014F } 
		.s1 { fill: #ffffff } 
		.s2 { fill: #ffffff } 
	</style>
	<g clip-path="url(#cp1)" id="Page 1">
		<g id="Group 1">
			<g id="Group 2">
				<path d="m1009.7 394.4h45.3q20.6 0 32.1-11.2 11.6-11.3 11.6-31.7v-95h29.1v94.8q0 16.5-4.6 29.8-4.7 13.3-13.9 22.8-9.2 9.4-22.9 14.5-13.7 5.1-32.1 5.1h-44.6zm260.6 29.1l-47-132.9q-1.7-4.6-6.3-4.6-4.6 0-6.3 4.6l-47 132.9h-31.1l51.9-145.5q3.9-10.9 12.4-16.2 8.5-5.3 20.1-5.3 11.6 0 20.1 5.3 8.5 5.3 12.4 16.2l51.9 145.5zm74.2-73.9l-61.8-93.1h34.9l41.4 66.9 41.3-66.9h34.9l-61.6 91.1v75.9h-29.1z" class="s0" id="Object 3"/>
				<path d="m1085.8 649.4q-75.9 0-75.9-83.4v-0.8q0.3-82.9 76.2-82.9h60.6v29.3h-68.2q-19.8 0-29.7 13.1-9.8 13.1-9.8 41.5 0 54.1 39.3 54.1h68.1v29.1zm190.6-69.4h-77.6v69.4h-29.3v-167.1h29.3v68.4h77.6v-68.4h29.1v167.1h-29.1zm184.6 69.3l-47.1-132.9q-1.7-4.6-6.3-4.6-4.6 0-6.3 4.6l-47 132.9h-31.1l51.9-145.5q3.9-10.9 12.4-16.2 8.5-5.3 20.1-5.3 11.7 0 20.1 5.3 8.5 5.3 12.4 16.2l51.9 145.5zm174.1-63.3q0 14.4-4.3 26-4.4 11.6-13.1 19.9-8.8 8.2-22 12.8-13.2 4.6-30.7 4.6-17.2 0-30.3-4.6-13.1-4.6-22-12.9-9-8.4-13.6-20.1-4.6-11.6-4.6-25.4v-104h29.3v103.3q0 15.2 11 24.9 11.1 9.7 30.7 9.7h0.7q19.7 0 29.6-9.7 10-9.7 10-24.9v-103.3h29.3zm131-6.1h-77.6v69.3h-29.4v-167h29.4v68.4h77.6v-68.4h29.1v167h-29.1zm184.5 69.4l-47-132.9q-1.7-4.6-6.4-4.6-4.6 0-6.3 4.6l-47 132.9h-31l51.9-145.5q3.8-10.9 12.3-16.2 8.5-5.4 20.1-5.4 11.7 0 20.2 5.4 8.5 5.3 12.3 16.2l51.9 145.5zm216.6-39.8q0 9.5-3.4 17-3.4 7.5-9.2 13-5.9 5.4-13.7 8.3-7.9 3-16.9 3-13.1 0-23.3-7-10.1-6.9-14.3-19.2l-33.4-102.9q-1.5-5-3.8-7.8-2.3-2.8-6.4-2.8-12.4 0-12.4 14.5v123.7h-31.3v-126.6q0-9.2 3.3-16.8 3.3-7.7 9.1-13 5.8-5.3 13.7-8.3 7.9-2.9 17.1-2.9 12.8 0 23 6.8 10.2 6.8 14.3 19.2l33.7 103q1.7 5.1 3.9 7.7 2.2 2.5 6.3 2.5 12.4 0 12.4-14.5v-124.2h31.3z" class="s1" id="Object 4"/>
				<path d="m932.3 200.7c3.6 0 6.5 2.9 6.5 6.5v524.8c0 3.6-2.9 6.5-6.5 6.5-3.5 0-6.4-2.9-6.4-6.5v-524.8c0-3.6 2.9-6.5 6.4-6.5z" class="s0" id="Object 5"/>
				<path d="m958.6 285.7c3.6 0 6.5 2.9 6.5 6.5v354.8c0 3.6-2.9 6.5-6.5 6.5-3.5 0-6.5-2.9-6.5-6.5v-354.8c0-3.6 3-6.5 6.5-6.5z" class="s1" id="Object 6"/>
				<path d="m1219.8 355c9.6 0 17.3 7.8 17.3 17.3 0 9.6-7.7 17.3-17.3 17.3-9.6 0-17.3-7.7-17.3-17.3 0-9.5 7.7-17.3 17.3-17.3z" class="s1" id="Object 7"/>
				<path d="m1406.8 590.3c9.6 0 17.3 7.7 17.3 17.3 0 9.6-7.7 17.3-17.3 17.3-9.6 0-17.3-7.7-17.3-17.3 0-9.6 7.7-17.3 17.3-17.3z" class="s0" id="Object 8"/>
				<path d="m1896 590.3c9.5 0 17.3 7.7 17.3 17.3 0 9.6-7.8 17.3-17.3 17.3-9.6 0-17.3-7.7-17.3-17.3 0-9.6 7.7-17.3 17.3-17.3z" class="s0" id="Object 9"/>
				<path d="m652.8 286.2h54c7.3 0 13.3 6 13.3 13.3v52c0 7.3-6 13.2-13.3 13.2h-54c-7.3 0-13.3-5.9-13.3-13.2v-52c0-7.3 6-13.3 13.3-13.3z" class="s0" id="Object 10"/>
				<path d="m565 236.3h38.5c5.2 0 9.4 4.2 9.4 9.4v37.1c0 5.2-4.2 9.4-9.4 9.4h-38.5c-5.2 0-9.5-4.2-9.5-9.4v-37.1c0-5.2 4.3-9.4 9.5-9.4z" class="s0" id="Object 11"/>
				<path d="m652.8 198.8h23.8c3.2 0 5.8 2.7 5.8 5.9v22.9c0 3.2-2.6 5.8-5.8 5.8h-23.8c-3.2 0-5.8-2.6-5.8-5.8v-22.9c0-3.2 2.6-5.9 5.8-5.9z" class="s0" id="Object 12"/>
				<path d="m567 665.2c22.7 0.3 79.3-2.3 95 2.6 0.4 15.2 4.5 11.5-7.9 15.4l-75.9 0.6c-12.5 0.2-40-3.7-46.7 4-3.1 3.6-4.1 16.3-1.1 21.3 4.4 7.2 10 5.1 20.8 5.2l201.8-1.6 0.9-26.2-31.7-2.8-13.7-48.2c-18.6-6.3-104.6-3.5-130.3-1.8-7.9 9.3-9.5 16.9-11.2 31.5z" class="s2" id="Object 13"/>
				<path d="m389.4 449l-0.3 37.2c36 6.3 30.3 4 30.1 44.9-0.2 21.9-2.5 50.4 4.5 67.5 7.3 18.1 19.5 28.5 40.6 33 18.2 3.9 54.1 5 71.3 1 5.7-10.7 3.8-29.5 3.2-42.3-42.5-3.5-70.9 12.1-71.5-35.6-0.5-40.4 9.1-62.6-18.4-87 27.4-24.3 17.8-45.8 18.4-87 0.7-46.8 29.8-33.4 71.6-35.2l0.4-43.3c-49 0.6-98.4-9.4-115.6 34.7-7.3 19-4.5 46.5-4.5 67.4 0 40.4 6 40.5-29.8 44.7z" class="s2" id="Object 14"/>
				<path d="m744.2 345.5c90.5 2.6 66.2-5.3 71.8 88.7 1.3 21.6 6.9 23.4 18.4 33.5-11.2 10.9-17 11.6-18.4 33.3-1.2 17 0.3 36.4 0.1 53.7-0.6 46.9-29.2 32.9-71.7 35.5l0.5 43.4c119.2 5.4 119.6-17.2 119.3-99.1-0.2-43.1-7.4-41.3 29.8-48.2v-37.3c-36.1-5.1-29.8-3.7-29.8-44.7 0-104.8-10.3-101-120.2-102.1z" class="s2" id="Object 15"/>
				<path d="m594.2 602.6c3.8 0.1 7.5 0 11.3 0.1 2 0 4 0.3 5.8 0.2 1.9 0 3.9-0.2 5.9-0.2l60.3-205.7-24.8-0.1c-1 2.5-2 6.8-2.7 9.4-10 34.6-35.3 124.1-45.1 158.6-1.8 6.3-3.5 12.4-5.4 18.7z" class="s0" id="Object 16"/>
				<path d="m749.7 516.5q0 0 0.1 0l-44.6 39.2c-0.2 4.9-0.5 21.2-0.5 27.2 1-0.3 25.2-21.3 44.7-38.4 9.9-8.8 20.5-17.4 30.2-26.4 0.7-0.7 1.2-1.2 1.5-1.6l-57.6-51.3c-1.5-1.4-3.3-2.8-4.8-4.2l-14.7-12.9c-0.4 4.5 0 15.2-0.1 20.9 0 2.1-0.5 5.5 0.7 6.7l22.6 20.4c2.5 2.4 5.1 4.4 7.5 6.7z" class="s0" id="Object 17"/>
				<path d="m529.4 476.3q-0.1-0.1-0.1-0.1l44.6-39.2c0.2-4.9 0.5-21.1 0.5-27.1-1 0.2-25.2 21.2-44.7 38.4-10 8.7-20.5 17.4-30.2 26.4-0.7 0.6-1.2 1.2-1.5 1.6l57.5 51.2c1.6 1.4 3.4 2.9 4.9 4.2l14.7 12.9c0.4-4.4 0-15.2 0.1-20.9 0-2.1 0.5-5.5-0.7-6.7l-22.6-20.3c-2.5-2.5-5.1-4.5-7.5-6.8z" class="s0" id="Object 18"/>
			</g>
		</g>
	</g>
</svg>